<svg width="26" height="28" viewBox="0 0 26 28" fill="none" xmlns="http://www.w3.org/2000/svg">
<path d="M10.5 4.50012V5.00012H15.5V4.50012C15.5 3.83708 15.2366 3.2012 14.7678 2.73236C14.2989 2.26351 13.663 2.00012 13 2.00012C12.337 2.00012 11.7011 2.26351 11.2322 2.73236C10.7634 3.2012 10.5 3.83708 10.5 4.50012ZM8.5 5.00012V4.50012C8.5 3.30665 8.97411 2.16206 9.81802 1.31814C10.6619 0.474228 11.8065 0.00012207 13 0.00012207C14.1935 0.00012207 15.3381 0.474228 16.182 1.31814C17.0259 2.16206 17.5 3.30665 17.5 4.50012V5.00012H25C25.2652 5.00012 25.5196 5.10548 25.7071 5.29302C25.8946 5.48055 26 5.73491 26 6.00012C26 6.26534 25.8946 6.51969 25.7071 6.70723C25.5196 6.89476 25.2652 7.00012 25 7.00012H23.492L21.6 23.5681C21.4605 24.7883 20.8768 25.9145 19.9601 26.7319C19.0435 27.5493 17.8581 28.0007 16.63 28.0001H9.37C8.14186 28.0007 6.95647 27.5493 6.03985 26.7319C5.12323 25.9145 4.53952 24.7883 4.4 23.5681L2.508 7.00012H1C0.734784 7.00012 0.48043 6.89476 0.292893 6.70723C0.105357 6.51969 0 6.26534 0 6.00012C0 5.73491 0.105357 5.48055 0.292893 5.29302C0.48043 5.10548 0.734784 5.00012 1 5.00012H8.5ZM6.388 23.3401C6.47149 24.072 6.82135 24.7476 7.37092 25.2382C7.92049 25.7288 8.63134 26 9.368 26.0001H16.631C17.3677 26 18.0785 25.7288 18.6281 25.2382C19.1776 24.7476 19.5275 24.072 19.611 23.3401L21.48 7.00012H4.521L6.388 23.3401ZM10 10.5001C10.2652 10.5001 10.5196 10.6055 10.7071 10.793C10.8946 10.9806 11 11.2349 11 11.5001V21.5001C11 21.7653 10.8946 22.0197 10.7071 22.2072C10.5196 22.3948 10.2652 22.5001 10 22.5001C9.73478 22.5001 9.48043 22.3948 9.29289 22.2072C9.10536 22.0197 9 21.7653 9 21.5001V11.5001C9 11.2349 9.10536 10.9806 9.29289 10.793C9.48043 10.6055 9.73478 10.5001 10 10.5001ZM17 11.5001C17 11.2349 16.8946 10.9806 16.7071 10.793C16.5196 10.6055 16.2652 10.5001 16 10.5001C15.7348 10.5001 15.4804 10.6055 15.2929 10.793C15.1054 10.9806 15 11.2349 15 11.5001V21.5001C15 21.7653 15.1054 22.0197 15.2929 22.2072C15.4804 22.3948 15.7348 22.5001 16 22.5001C16.2652 22.5001 16.5196 22.3948 16.7071 22.2072C16.8946 22.0197 17 21.7653 17 21.5001V11.5001Z" fill="#5E5E75"/>
</svg>
