<svg width="32" height="32" viewBox="0 0 32 32" fill="none" xmlns="http://www.w3.org/2000/svg">
<path d="M5.56488 21.6245L5.56484 21.6243C5.46748 21.1154 5.55019 20.5878 5.79913 20.1337C6.04813 19.6796 6.44804 19.3274 6.92987 19.1405L6.93038 19.1403L7.57093 18.8926L5.56488 21.6245ZM5.56488 21.6245L6.11255 24.4806L6.11255 24.4806C6.21649 25.0226 6.4717 25.5238 6.84884 25.9248C7.22604 26.3258 7.70948 26.6097 8.24236 26.742L8.24243 26.742L18.5574 29.3024C19.8122 29.6139 21.1375 29.411 22.2445 28.7387C23.3512 28.0666 24.1494 26.9803 24.4676 25.7176L24.4676 25.7175L26.3811 18.1185L26.3811 18.1185C26.4885 17.6917 26.4981 17.2459 26.4093 16.8148C26.3205 16.3837 26.1355 15.9785 25.868 15.6301C25.6005 15.2816 25.2575 14.9991 24.8649 14.8046C24.4722 14.6101 24.0405 14.5089 23.6028 14.5089M5.56488 21.6245L23.6028 14.5089M17.6813 5.26165C17.6129 5.53318 17.5412 5.80385 17.4663 6.07358L17.6813 5.26165ZM17.6813 5.26165C17.9382 4.2731 18.064 4.05539 18.0802 4.05539C19.2539 4.05539 20.118 5.40267 20.118 7.75083C20.118 8.96119 19.6772 10.9479 18.7874 13.6589M17.6813 5.26165L12.1726 15.0939M12.1726 15.0939L12.1726 15.0939L16.0495 8.95172L16.0502 8.9506C16.1452 8.80102 16.2191 8.63465 16.2686 8.46042L16.2691 8.45873C16.6096 7.27521 16.8471 6.4348 16.9845 5.93987L16.9845 5.93965C17.0584 5.67387 17.129 5.40717 17.1964 5.13961L17.1973 5.13587C17.3281 4.63294 17.4284 4.31411 17.5018 4.11494C17.5382 4.0163 17.5709 3.93886 17.6007 3.87967C17.6148 3.85169 17.6341 3.81605 17.6587 3.78082C17.6699 3.76481 17.6925 3.73363 17.7261 3.70079C17.7426 3.68461 17.7733 3.65655 17.8172 3.62968C17.854 3.60709 17.9479 3.55539 18.0802 3.55539C18.8902 3.55539 19.5452 4.03043 19.9726 4.77316C20.3937 5.5049 20.618 6.52434 20.618 7.75083C20.618 9.04791 20.1532 11.101 19.2625 13.8146M12.1726 15.0939C11.079 16.8269 9.46588 18.1579 7.57135 18.8924L12.1726 15.0939ZM19.2625 13.8146C19.2625 13.8147 19.2625 13.8147 19.2625 13.8148L18.7874 13.6589M19.2625 13.8146C19.2626 13.8145 19.2626 13.8145 19.2626 13.8145L18.7874 13.6589M19.2625 13.8146C19.2364 13.8944 19.2294 13.9795 19.242 14.0629C19.2546 14.1462 19.2866 14.2249 19.3347 14.2926C19.3829 14.3602 19.4458 14.4147 19.5178 14.4521C19.5898 14.4894 19.6692 14.5088 19.7495 14.5089M18.7874 13.6589C18.7369 13.8131 18.7233 13.9772 18.7476 14.1378C18.772 14.2984 18.8336 14.4508 18.9275 14.5826C19.0213 14.7144 19.1447 14.8217 19.2875 14.8959C19.4303 14.97 19.5884 15.0087 19.7489 15.0089M19.7495 14.5089H19.7489V15.0089M19.7495 14.5089L19.7489 15.0089M19.7495 14.5089H23.6027L23.6028 15.0089M19.7489 15.0089H23.6028M23.6028 15.0089V14.5089M23.6028 15.0089C23.9633 15.0089 24.3191 15.0922 24.6429 15.2527C24.9668 15.4131 25.2502 15.6463 25.4714 15.9345C25.6927 16.2227 25.846 16.5583 25.9196 16.9157C25.9932 17.273 25.9852 17.6427 25.8962 17.9965L23.6028 14.5089M15.998 5.65189L15.9981 5.65121C16.0523 5.45575 16.1034 5.25993 16.2046 4.86356C16.4541 3.90411 16.6772 3.31628 16.9585 2.96311C17.2004 2.65935 17.5089 2.50024 18.0815 2.50024C19.162 2.50024 20.0315 3.00609 20.6494 3.90495C21.2773 4.81846 21.6478 6.14838 21.6478 7.75083C21.6478 8.92068 21.3284 10.5879 20.6614 12.8114L20.4683 13.4551H21.1403H23.6041H23.6043C24.1967 13.455 24.7816 13.5919 25.3144 13.8558C25.8471 14.1196 26.3139 14.5036 26.6786 14.9787C27.0433 15.4539 27.2963 16.0076 27.4178 16.5977C27.5393 17.1878 27.526 17.7983 27.3789 18.3823L27.8637 18.5044L27.3789 18.3823L25.4654 25.9813C25.0789 27.5163 24.1099 28.8328 22.7715 29.646C21.4332 30.4591 19.833 30.7039 18.3182 30.3281L8.00329 27.7678L8.00325 27.7678C7.28133 27.5886 6.62439 27.2036 6.11058 26.6573C5.59675 26.111 5.24767 25.4263 5.10553 24.6841C5.10552 24.6841 5.10552 24.684 5.10551 24.684L4.55922 21.828L4.55918 21.8278C4.41439 21.0724 4.5373 20.2898 4.90564 19.6178C5.27391 18.9459 5.86344 18.4283 6.56938 18.1546L7.20885 17.9068L7.2089 17.9068C8.90012 17.2513 10.3379 16.0643 11.3117 14.5213L11.3118 14.5212L15.1853 8.38019C15.2281 8.31307 15.2611 8.24029 15.2835 8.16406L15.2843 8.16128C15.6224 6.98353 15.8608 6.14403 15.998 5.65189Z" fill="#5E5E75" stroke="#5E5E75"/>
</svg>
