<svg width="26" height="28" viewBox="0 0 26 28" fill="none" xmlns="http://www.w3.org/2000/svg">
<path d="M10.5 4.50037V5.00037H15.5V4.50037C15.5 3.83733 15.2366 3.20144 14.7678 2.7326C14.2989 2.26376 13.663 2.00037 13 2.00037C12.337 2.00037 11.7011 2.26376 11.2322 2.7326C10.7634 3.20144 10.5 3.83733 10.5 4.50037ZM8.5 5.00037V4.50037C8.5 3.30689 8.97411 2.1623 9.81802 1.31839C10.6619 0.474472 11.8065 0.000366211 13 0.000366211C14.1935 0.000366211 15.3381 0.474472 16.182 1.31839C17.0259 2.1623 17.5 3.30689 17.5 4.50037V5.00037H25C25.2652 5.00037 25.5196 5.10572 25.7071 5.29326C25.8946 5.4808 26 5.73515 26 6.00037C26 6.26558 25.8946 6.51994 25.7071 6.70747C25.5196 6.89501 25.2652 7.00037 25 7.00037H23.492L21.6 23.5684C21.4605 24.7886 20.8768 25.9147 19.9601 26.7321C19.0435 27.5495 17.8581 28.0009 16.63 28.0004H9.37C8.14186 28.0009 6.95647 27.5495 6.03985 26.7321C5.12323 25.9147 4.53952 24.7886 4.4 23.5684L2.508 7.00037H1C0.734784 7.00037 0.48043 6.89501 0.292893 6.70747C0.105357 6.51994 0 6.26558 0 6.00037C0 5.73515 0.105357 5.4808 0.292893 5.29326C0.48043 5.10572 0.734784 5.00037 1 5.00037H8.5ZM6.388 23.3404C6.47149 24.0723 6.82135 24.7479 7.37092 25.2384C7.92049 25.729 8.63134 26.0002 9.368 26.0004H16.631C17.3677 26.0002 18.0785 25.729 18.6281 25.2384C19.1776 24.7479 19.5275 24.0723 19.611 23.3404L21.48 7.00037H4.521L6.388 23.3404ZM10 10.5004C10.2652 10.5004 10.5196 10.6057 10.7071 10.7933C10.8946 10.9808 11 11.2351 11 11.5004V21.5004C11 21.7656 10.8946 22.0199 10.7071 22.2075C10.5196 22.395 10.2652 22.5004 10 22.5004C9.73478 22.5004 9.48043 22.395 9.29289 22.2075C9.10536 22.0199 9 21.7656 9 21.5004V11.5004C9 11.2351 9.10536 10.9808 9.29289 10.7933C9.48043 10.6057 9.73478 10.5004 10 10.5004ZM17 11.5004C17 11.2351 16.8946 10.9808 16.7071 10.7933C16.5196 10.6057 16.2652 10.5004 16 10.5004C15.7348 10.5004 15.4804 10.6057 15.2929 10.7933C15.1054 10.9808 15 11.2351 15 11.5004V21.5004C15 21.7656 15.1054 22.0199 15.2929 22.2075C15.4804 22.395 15.7348 22.5004 16 22.5004C16.2652 22.5004 16.5196 22.395 16.7071 22.2075C16.8946 22.0199 17 21.7656 17 21.5004V11.5004Z" fill="#5E5E75"/>
</svg>
